<?xml version="1.0" encoding="utf-8"?>
<!-- Generator: Adobe Illustrator 23.1.0, SVG Export Plug-In . SVG Version: 6.00 Build 0)  -->
<svg version="1.1" id="Capa_1" xmlns="http://www.w3.org/2000/svg" xmlns:xlink="http://www.w3.org/1999/xlink" x="0px" y="0px"
	 viewBox="0 0 50 39" style="enable-background:new 0 0 50 39;" xml:space="preserve">
<style type="text/css">
	.st0{fill:#3F4F23;}
	.st1{fill:#CAC98F;}
</style>
<title>Group</title>
<desc>Created with Sketch.</desc>
<g>
	<g id="XMLID_7085_">
		<path id="XMLID_7086_" class="st0" d="M40,5.5c-3-2.8-6.9-4.1-11.6-4.1c-3,0-5.9,0.6-8.6,1.7s-5,2.6-7,4.5s-3.5,4.2-4.6,6.8
			c-1.2,2.6-1.7,5.4-1.7,8.3c0,2.3,0.4,4.4,1.3,6.3s2,3.5,3.5,4.7s3.2,2.2,5.1,2.9s4,1,6.1,1c2.1,0,4.2-0.3,6.3-0.9
			c2.1-0.6,4.1-1.6,6-2.8s3.5-2.7,4.9-4.4c1.4-1.7,2.6-3.7,3.4-5.9c0.8-2.3,1.3-4.6,1.3-7.1C44.5,11.9,43,8.3,40,5.5z"/>
	</g>
	<path id="XMLID_7087_" class="st1" d="M30.4,12.7L30.4,12.7c0.7,0,1.2,0.2,1.5,0.4c0.3,0.2,0.4,0.6,0.4,1.1c0,0.5-0.1,1.2-0.2,1.9
		l-1.6,10H28c-2.7,0-3.9-0.9-3.9-3.4c0-1.8,0.6-2.7,1.9-3.2c0.2-0.1,0.3-0.1,0.5-0.1c0.2-0.1,0.5-0.2,0.7-0.3
		c1.1-0.5,1.8-1.4,1.8-2.9c0-3-2.8-3.6-6-3.6h-2.6l0,0h-5.9v0c0.4,0,0.8,0,1,0.1c0.4,0.2,0.7,0.5,0.7,1.1c0,0.4,0,1.1-0.2,2.2
		l-1,6.6c-0.1,0.3-0.1,0.6-0.1,0.8c-0.2,1-0.4,1.6-0.6,2c-0.4,0.5-1,0.7-1.8,0.7v0h8.3v0c-0.7,0-1.2-0.1-1.5-0.4
		c-0.3-0.2-0.4-0.6-0.4-1.1c0-0.5,0.1-1.2,0.2-1.9l1.6-10H23c2.7,0,3.9,0.9,3.9,3.4c0,1.8-0.6,2.7-1.9,3.2c-0.2,0.1-0.3,0.1-0.5,0.1
		c-0.2,0.1-0.5,0.2-0.7,0.3c-1.1,0.5-1.8,1.4-1.8,2.9c0,3,2.8,3.6,6,3.6h2.6h0h5.9v0c-0.4,0-0.8,0-1-0.1c-0.4-0.2-0.7-0.5-0.7-1.1
		c0-0.4,0-1.1,0.2-2.2l1-6.6c0.1-0.3,0.1-0.6,0.1-0.8c0.2-1,0.4-1.6,0.6-2c0.4-0.5,1-0.7,1.8-0.7v0H30.4z"/>
</g>
</svg>
