<?xml version="1.0" encoding="utf-8"?>
<!-- Generator: Adobe Illustrator 19.0.0, SVG Export Plug-In . SVG Version: 6.00 Build 0)  -->
<svg version="1.1" id="Layer_1" xmlns="http://www.w3.org/2000/svg" xmlns:xlink="http://www.w3.org/1999/xlink" x="0px" y="0px"
	 viewBox="0 0 550 550" style="enable-background:new 0 0 550 550;" xml:space="preserve">
<style type="text/css">
	.st0{fill:#DBC968;}
</style>
<path id="XMLID_15_" class="st0" d="M368.6,145.5v0.9c13.8,0,23.6,2.4,29.2,7.1c5.7,4.7,8.4,12,8.1,21.7c-0.2,9.7-1.6,22-4.1,36.9
	L372,401.9h-49.6c-52,0-74.6-17.7-74.6-65.3c0-33.3,11.1-51.9,35.4-60.1c3.1-1.1,6.5-1.9,10.1-2.6c4.5-1.4,8.9-3,12.9-4.9
	c21-9.9,34.4-26.9,34.4-55.5c0-56.6-52.6-68-112.9-68h-50l0,0h-112v0.9c8,0,14.4,0.9,19.1,2.8c8.3,3.2,12.8,10.1,13.5,20.7
	c0.5,6.8-0.9,20.8-4.3,42.2L74.2,337.9c-1,6.5-1.8,11.3-2.4,14.4c-3.1,18.1-7.1,30.6-12,37.4C53,399,41.4,403.6,25,403.6v0.9h156.4
	v-0.9c-13.8,0-23.6-2.4-29.2-7.1c-5.7-4.7-8.4-12-8.1-21.7c0.2-9.7,1.6-22,4.1-36.9L178,148.1h49.6c52,0,74.6,17.7,74.6,65.3
	c0,33.3-11.1,51.9-35.4,60.1c-3.1,1.1-6.5,1.9-10.1,2.6c-4.5,1.4-8.9,3-12.9,4.9c-21,9.9-34.4,26.9-34.4,55.5
	c0,56.6,52.6,68,112.9,68h49.2h0.8h112v-0.9c-8,0-14.4-0.9-19.1-2.8c-8.3-3.2-12.8-10.1-13.5-20.7c-0.5-6.8,0.9-20.8,4.3-42.2
	l19.8-125.8c1-6.5,1.8-11.3,2.4-14.4c3.1-18.1,7.1-30.6,12-37.4c6.8-9.3,18.4-13.9,34.8-13.9v-0.9H368.6z"/>
</svg>
